<svg width="700" height="200" viewBox="0 0 700 200" fill="none" xmlns="http://www.w3.org/2000/svg">
<path d="M267.64 135V72.024H285.592C289.112 72.024 292.312 72.344 295.192 72.984C298.136 73.624 300.632 74.68 302.68 76.152C304.728 77.56 306.328 79.448 307.48 81.816C308.632 84.184 309.208 87.096 309.208 90.552C309.208 93.88 308.632 96.76 307.48 99.192C306.392 101.624 304.824 103.64 302.776 105.24C300.728 106.84 298.264 108.056 295.384 108.888C292.568 109.656 289.432 110.04 285.976 110.04H275.608V135H267.64ZM275.608 103.512H285.016C290.52 103.512 294.584 102.488 297.208 100.44C299.896 98.328 301.24 95.032 301.24 90.552C301.24 86.008 299.832 82.872 297.016 81.144C294.264 79.352 290.136 78.456 284.632 78.456H275.608V103.512ZM327.874 136.152C323.97 136.152 320.706 135 318.082 132.696C315.522 130.392 314.242 127.128 314.242 122.904C314.242 117.784 316.514 113.88 321.058 111.192C325.602 108.44 332.866 106.52 342.85 105.432C342.85 103.96 342.69 102.52 342.37 101.112C342.114 99.704 341.634 98.456 340.93 97.368C340.226 96.28 339.234 95.416 337.954 94.776C336.738 94.072 335.17 93.72 333.25 93.72C330.562 93.72 328.034 94.232 325.666 95.256C323.298 96.28 321.186 97.432 319.33 98.712L316.258 93.24C318.434 91.832 321.09 90.488 324.226 89.208C327.362 87.864 330.818 87.192 334.594 87.192C340.29 87.192 344.418 88.952 346.978 92.472C349.538 95.928 350.818 100.568 350.818 106.392V135H344.29L343.618 129.432H343.33C341.09 131.288 338.69 132.888 336.13 134.232C333.57 135.512 330.818 136.152 327.874 136.152ZM330.178 129.816C332.418 129.816 334.53 129.304 336.514 128.28C338.498 127.192 340.61 125.624 342.85 123.576V110.616C338.946 111.128 335.65 111.736 332.962 112.44C330.338 113.144 328.194 113.976 326.53 114.936C324.93 115.896 323.746 117.016 322.978 118.296C322.274 119.512 321.922 120.856 321.922 122.328C321.922 125.016 322.722 126.936 324.322 128.088C325.922 129.24 327.874 129.816 330.178 129.816ZM377.689 136.152C374.361 136.152 371.193 135.544 368.185 134.328C365.177 133.112 362.553 131.576 360.313 129.72L364.249 124.44C366.297 126.104 368.377 127.448 370.489 128.472C372.665 129.496 375.161 130.008 377.977 130.008C381.049 130.008 383.353 129.304 384.889 127.896C386.425 126.488 387.193 124.76 387.193 122.712C387.193 121.496 386.873 120.44 386.233 119.544C385.593 118.648 384.761 117.88 383.737 117.24C382.777 116.536 381.657 115.928 380.377 115.416C379.097 114.904 377.817 114.392 376.537 113.88C374.873 113.304 373.209 112.664 371.545 111.96C369.881 111.192 368.377 110.296 367.033 109.272C365.753 108.184 364.697 106.936 363.865 105.528C363.033 104.12 362.617 102.424 362.617 100.44C362.617 98.584 362.969 96.856 363.673 95.256C364.441 93.592 365.497 92.184 366.841 91.032C368.249 89.816 369.945 88.888 371.929 88.248C373.913 87.544 376.153 87.192 378.649 87.192C381.593 87.192 384.281 87.704 386.713 88.728C389.209 89.752 391.353 91 393.145 92.472L389.401 97.464C387.801 96.248 386.137 95.256 384.409 94.488C382.681 93.72 380.793 93.336 378.745 93.336C375.801 93.336 373.625 94.008 372.217 95.352C370.873 96.696 370.201 98.264 370.201 100.056C370.201 101.144 370.489 102.104 371.065 102.936C371.641 103.704 372.409 104.408 373.369 105.048C374.329 105.624 375.417 106.168 376.633 106.68C377.913 107.128 379.225 107.608 380.569 108.12C382.233 108.76 383.897 109.432 385.561 110.136C387.289 110.84 388.825 111.736 390.169 112.824C391.513 113.848 392.601 115.128 393.433 116.664C394.329 118.2 394.777 120.056 394.777 122.232C394.777 124.152 394.393 125.944 393.625 127.608C392.921 129.272 391.833 130.744 390.361 132.024C388.953 133.304 387.161 134.296 384.985 135C382.873 135.768 380.441 136.152 377.689 136.152ZM417.908 136.152C414.58 136.152 411.412 135.544 408.404 134.328C405.396 133.112 402.772 131.576 400.532 129.72L404.468 124.44C406.516 126.104 408.596 127.448 410.708 128.472C412.884 129.496 415.38 130.008 418.196 130.008C421.268 130.008 423.572 129.304 425.108 127.896C426.644 126.488 427.412 124.76 427.412 122.712C427.412 121.496 427.092 120.44 426.452 119.544C425.812 118.648 424.98 117.88 423.956 117.24C422.996 116.536 421.876 115.928 420.596 115.416C419.316 114.904 418.036 114.392 416.756 113.88C415.092 113.304 413.428 112.664 411.764 111.96C410.1 111.192 408.596 110.296 407.252 109.272C405.972 108.184 404.916 106.936 404.084 105.528C403.252 104.12 402.836 102.424 402.836 100.44C402.836 98.584 403.188 96.856 403.892 95.256C404.66 93.592 405.716 92.184 407.06 91.032C408.468 89.816 410.164 88.888 412.148 88.248C414.132 87.544 416.372 87.192 418.868 87.192C421.812 87.192 424.5 87.704 426.932 88.728C429.428 89.752 431.572 91 433.364 92.472L429.62 97.464C428.02 96.248 426.356 95.256 424.628 94.488C422.9 93.72 421.012 93.336 418.964 93.336C416.02 93.336 413.844 94.008 412.436 95.352C411.092 96.696 410.42 98.264 410.42 100.056C410.42 101.144 410.708 102.104 411.284 102.936C411.86 103.704 412.628 104.408 413.588 105.048C414.548 105.624 415.636 106.168 416.852 106.68C418.132 107.128 419.444 107.608 420.788 108.12C422.452 108.76 424.116 109.432 425.78 110.136C427.508 110.84 429.044 111.736 430.388 112.824C431.732 113.848 432.82 115.128 433.652 116.664C434.548 118.2 434.996 120.056 434.996 122.232C434.996 124.152 434.612 125.944 433.844 127.608C433.14 129.272 432.052 130.744 430.58 132.024C429.172 133.304 427.38 134.296 425.204 135C423.092 135.768 420.66 136.152 417.908 136.152ZM453.327 135L440.367 88.344H448.431L455.343 115.32C455.855 117.56 456.335 119.736 456.783 121.848C457.231 123.96 457.679 126.104 458.127 128.28H458.511C459.023 126.104 459.535 123.96 460.047 121.848C460.559 119.672 461.103 117.496 461.679 115.32L468.879 88.344H476.559L483.855 115.32C484.431 117.56 484.975 119.736 485.487 121.848C486.063 123.96 486.607 126.104 487.119 128.28H487.503C488.015 126.104 488.495 123.96 488.943 121.848C489.391 119.736 489.871 117.56 490.383 115.32L497.199 88.344H504.687L492.207 135H482.607L475.887 109.944C475.311 107.704 474.767 105.496 474.255 103.32C473.807 101.144 473.295 98.872 472.719 96.504H472.335C471.823 98.872 471.311 101.176 470.799 103.416C470.287 105.592 469.711 107.8 469.071 110.04L462.543 135H453.327ZM532.61 136.152C529.73 136.152 526.978 135.608 524.354 134.52C521.794 133.432 519.522 131.864 517.538 129.816C515.554 127.704 513.954 125.144 512.738 122.136C511.586 119.064 511.01 115.608 511.01 111.768C511.01 107.864 511.586 104.408 512.738 101.4C513.954 98.328 515.554 95.736 517.538 93.624C519.522 91.512 521.794 89.912 524.354 88.824C526.978 87.736 529.73 87.192 532.61 87.192C535.49 87.192 538.21 87.736 540.77 88.824C543.394 89.912 545.698 91.512 547.682 93.624C549.666 95.736 551.234 98.328 552.386 101.4C553.602 104.408 554.21 107.864 554.21 111.768C554.21 115.608 553.602 119.064 552.386 122.136C551.234 125.144 549.666 127.704 547.682 129.816C545.698 131.864 543.394 133.432 540.77 134.52C538.21 135.608 535.49 136.152 532.61 136.152ZM532.61 129.624C534.594 129.624 536.418 129.208 538.082 128.376C539.746 127.48 541.154 126.264 542.306 124.728C543.522 123.128 544.45 121.24 545.09 119.064C545.73 116.888 546.05 114.456 546.05 111.768C546.05 109.08 545.73 106.648 545.09 104.472C544.45 102.232 543.522 100.312 542.306 98.712C541.154 97.112 539.746 95.896 538.082 95.064C536.418 94.168 534.594 93.72 532.61 93.72C530.626 93.72 528.802 94.168 527.138 95.064C525.474 95.896 524.034 97.112 522.818 98.712C521.666 100.312 520.77 102.232 520.13 104.472C519.49 106.648 519.17 109.08 519.17 111.768C519.17 114.456 519.49 116.888 520.13 119.064C520.77 121.24 521.666 123.128 522.818 124.728C524.034 126.264 525.474 127.48 527.138 128.376C528.802 129.208 530.626 129.624 532.61 129.624ZM566.497 135V88.344H573.025L573.697 96.792H573.985C575.585 93.848 577.505 91.512 579.745 89.784C582.049 88.056 584.545 87.192 587.233 87.192C589.089 87.192 590.753 87.512 592.225 88.152L590.689 95.064C589.921 94.808 589.217 94.616 588.577 94.488C587.937 94.36 587.137 94.296 586.177 94.296C584.193 94.296 582.113 95.096 579.937 96.696C577.825 98.296 575.969 101.08 574.369 105.048V135H566.497ZM614.777 136.152C608.889 136.152 604.185 134.04 600.665 129.816C597.209 125.592 595.481 119.576 595.481 111.768C595.481 107.992 596.025 104.6 597.113 101.592C598.265 98.52 599.769 95.928 601.625 93.816C603.481 91.704 605.625 90.072 608.057 88.92C610.489 87.768 613.049 87.192 615.737 87.192C618.425 87.192 620.761 87.672 622.745 88.632C624.729 89.592 626.745 90.904 628.793 92.568L628.409 84.6V66.648H636.377V135H629.849L629.177 129.528H628.889C627.033 131.32 624.889 132.888 622.457 134.232C620.089 135.512 617.529 136.152 614.777 136.152ZM616.505 129.528C618.681 129.528 620.729 129.016 622.649 127.992C624.569 126.904 626.489 125.272 628.409 123.096V98.712C626.425 96.92 624.505 95.672 622.649 94.968C620.857 94.2 619.001 93.816 617.081 93.816C615.225 93.816 613.465 94.264 611.801 95.16C610.201 95.992 608.793 97.208 607.577 98.808C606.361 100.344 605.401 102.2 604.697 104.376C603.993 106.552 603.641 108.984 603.641 111.672C603.641 117.304 604.761 121.688 607.001 124.824C609.241 127.96 612.409 129.528 616.505 129.528Z" fill="#333333"/>
<path d="M63.64 135V72.024H71.608V103.608H71.896L98.104 72.024H107.128L87.448 96.024L110.2 135H101.272L82.456 102.264L71.608 115.032V135H63.64ZM136.722 136.152C133.586 136.152 130.642 135.608 127.89 134.52C125.202 133.368 122.834 131.768 120.786 129.72C118.802 127.608 117.234 125.048 116.082 122.04C114.93 119.032 114.354 115.608 114.354 111.768C114.354 107.928 114.93 104.504 116.082 101.496C117.298 98.424 118.866 95.832 120.786 93.72C122.77 91.608 125.01 90.008 127.506 88.92C130.002 87.768 132.594 87.192 135.281 87.192C138.226 87.192 140.85 87.704 143.154 88.728C145.522 89.752 147.474 91.224 149.01 93.144C150.61 95.064 151.826 97.368 152.658 100.056C153.49 102.744 153.906 105.752 153.906 109.08C153.906 109.912 153.874 110.744 153.81 111.576C153.81 112.344 153.746 113.016 153.618 113.592H122.13C122.45 118.584 123.986 122.552 126.738 125.496C129.554 128.376 133.202 129.816 137.682 129.816C139.922 129.816 141.97 129.496 143.826 128.856C145.746 128.152 147.57 127.256 149.298 126.168L152.082 131.352C150.034 132.632 147.762 133.752 145.266 134.712C142.77 135.672 139.922 136.152 136.722 136.152ZM122.034 107.928H146.994C146.994 103.192 145.97 99.608 143.922 97.176C141.938 94.68 139.122 93.432 135.474 93.432C133.81 93.432 132.21 93.752 130.674 94.392C129.202 95.032 127.858 95.992 126.642 97.272C125.426 98.488 124.402 99.992 123.57 101.784C122.802 103.576 122.29 105.624 122.034 107.928ZM184.347 136.152C181.211 136.152 178.267 135.608 175.515 134.52C172.827 133.368 170.459 131.768 168.411 129.72C166.427 127.608 164.859 125.048 163.707 122.04C162.555 119.032 161.979 115.608 161.979 111.768C161.979 107.928 162.555 104.504 163.707 101.496C164.923 98.424 166.491 95.832 168.411 93.72C170.395 91.608 172.635 90.008 175.131 88.92C177.627 87.768 180.219 87.192 182.906 87.192C185.851 87.192 188.475 87.704 190.779 88.728C193.147 89.752 195.099 91.224 196.635 93.144C198.235 95.064 199.451 97.368 200.283 100.056C201.115 102.744 201.531 105.752 201.531 109.08C201.531 109.912 201.499 110.744 201.435 111.576C201.435 112.344 201.371 113.016 201.243 113.592H169.755C170.075 118.584 171.611 122.552 174.363 125.496C177.179 128.376 180.827 129.816 185.307 129.816C187.547 129.816 189.595 129.496 191.451 128.856C193.371 128.152 195.195 127.256 196.923 126.168L199.707 131.352C197.659 132.632 195.387 133.752 192.891 134.712C190.395 135.672 187.547 136.152 184.347 136.152ZM169.659 107.928H194.619C194.619 103.192 193.595 99.608 191.547 97.176C189.563 94.68 186.747 93.432 183.099 93.432C181.435 93.432 179.835 93.752 178.299 94.392C176.827 95.032 175.483 95.992 174.267 97.272C173.051 98.488 172.027 99.992 171.195 101.784C170.427 103.576 169.915 105.624 169.659 107.928ZM213.06 154.68V88.344H219.588L220.26 93.72H220.548C222.66 91.928 224.964 90.392 227.46 89.112C230.02 87.832 232.676 87.192 235.428 87.192C238.436 87.192 241.092 87.768 243.396 88.92C245.7 90.008 247.62 91.608 249.156 93.72C250.692 95.768 251.844 98.264 252.612 101.208C253.444 104.088 253.86 107.352 253.86 111C253.86 114.968 253.316 118.52 252.228 121.656C251.14 124.728 249.668 127.352 247.812 129.528C245.956 131.704 243.812 133.368 241.38 134.52C238.948 135.608 236.388 136.152 233.7 136.152C231.524 136.152 229.348 135.672 227.172 134.712C225.06 133.752 222.916 132.44 220.74 130.776L220.932 138.936V154.68H213.06ZM232.356 129.528C234.276 129.528 236.036 129.112 237.636 128.28C239.3 127.384 240.708 126.168 241.86 124.632C243.076 123.032 244.004 121.08 244.644 118.776C245.348 116.472 245.7 113.88 245.7 111C245.7 108.44 245.476 106.104 245.028 103.992C244.58 101.88 243.844 100.088 242.82 98.616C241.86 97.08 240.58 95.896 238.98 95.064C237.444 94.232 235.588 93.816 233.411 93.816C231.428 93.816 229.412 94.36 227.364 95.448C225.38 96.536 223.236 98.104 220.932 100.152V124.632C223.044 126.424 225.092 127.704 227.076 128.472C229.06 129.176 230.82 129.528 232.356 129.528Z" fill="#C0392B"/>
</svg>
